<svg xmlns="http://www.w3.org/2000/svg" width="323.575" height="118.201" viewBox="0 0 323.575 118.201">
  <g id="Group_23690" data-name="Group 23690" transform="translate(20380.869 13594.058)">
    <path id="Path_57582" data-name="Path 57582" d="M36.265,759.88H59.8s-2.456,4.6-2.368,13.393,0,13.656,0,13.656H78.074V772.749a42.176,42.176,0,0,0-2.5-12.869H99.111s-2.5,4.6-2.5,12.869v43.2s.22,9.718,2.631,13.132h-23.8s2.542-4.683,2.5-13.656,0-14.707,0-14.707H57.432L57.3,815.293s-.263,7.967,2.629,13.789h-23.8s2.586-4.245,2.629-14.84,0-40.576,0-40.576.045-8.535-2.5-13.787m319.1,24.161,3.812-.524a5.736,5.736,0,0,0-1.84-2.89c-1.25-.765-2.28-1.051-5-1.051s-6.179.547-6.179,4.465c-.065,2.911,3.2,4.049,5.259,4.465s4.186.569,4.208,1.707-1.687,1.444-2.629,1.444-2.739.022-3.288-2.1l-4.206.524s.787,4.465,7.494,4.465,6.7-4.683,6.7-4.859.241-2.976-3.812-4.069-5.9-1.314-5.918-2.234,1.491-1.181,2.366-1.181,2.629.2,3.025,1.838m-16.172-2.364V779.97h-3.814v14.052h4.078V786.8s.153-4.006,2.5-3.939a3.85,3.85,0,0,1,1.972.657l1.316-3.284a4.6,4.6,0,0,0-2.762-.657c-1.95,0-2.827,1.6-3.286,2.1m-14.858-2.231c3.484,0,8.02,2.123,8.02,7.484s-4.953,7.617-7.757,7.617-7.89-1.489-7.89-7.747,5.677-7.353,7.627-7.353m.131,3.151c1.907-.051,3.682,1.467,3.682,4.465s-2.191,4.333-3.549,4.333-3.682-.722-3.682-4.465,2.717-4.31,3.549-4.333m-14.725,1.575,3.945-.655s-.341-4.071-6.7-4.071c-5.193,0-6.311,2.735-6.311,4.465s.459,2.844,3.286,3.939,6.048,1.116,6.048,2.1-.043,1.62-2.5,1.707-3.178-1.379-3.288-2.234l-4.208.657s.483,4.334,7.364,4.334,6.837-4.53,6.837-4.728.065-2.823-3.288-3.939-6.442-1.2-6.442-2.364,2.038-1.181,2.5-1.181,2.8.284,2.76,1.968m-21.956,2.234v7.617h-4.076V779.839h3.812v2.1a5.167,5.167,0,0,1,4.732-2.364c3.529,0,5.128,1.509,5.128,4.6v9.85h-4.076v-8.537s.439-2.911-2.236-2.888-3.111,1.51-3.286,3.808m-17.355,1.707,9.991-.133s.806-8.1-7.1-8.4c-6.925-.261-7.1,6.852-7.1,7.486s-.416,7.353,7.364,7.353c4.732,0,6.572-3.765,6.572-4.334l-3.943-.657a2.961,2.961,0,0,1-2.629,2.1,3.39,3.39,0,0,1-3.156-3.413m.131-2.364h5.785s.22-3.151-2.892-3.151a2.758,2.758,0,0,0-2.892,3.151m-11.439-5.385,4.208-.13s.351-6.17-7.89-6.17c-6.572,0-7.625,3.959-7.625,5.383a5.231,5.231,0,0,0,3.156,4.989c2.629,1.116,7.294,1.771,8.414,2.888a1.537,1.537,0,0,1,.263,1.051c0,.22.022,2.5-3.945,2.5s-4.469-3.131-4.469-3.547l-4.076.4s-.308,6.7,8.545,6.7,8.284-5.974,8.284-6.172a5.358,5.358,0,0,0-3.812-5.252c-3.466-1.354-8.265-1.487-8.265-3.535,0-1.028,1.122-1.828,3.531-1.717s3.2.612,3.682,2.625m-27.348,1.053v-6.7h4.076v19.435h-3.812v-1.838a5.929,5.929,0,0,1-4.469,2.232c-2.837,0-6.311-1.707-6.311-7.484s3.229-7.486,6.311-7.486a5.038,5.038,0,0,1,4.206,1.84m-3.156,1.05c1.954,0,3.288,1.65,3.288,4.463s-1.409,4.6-3.288,4.6-3.286-1.387-3.286-4.726,1.934-4.333,3.286-4.333m-18.144-2.5h3.812v1.707s1.391-2.231,3.288-2.231a3.46,3.46,0,0,1,2.629.787l-1.183,3.284a4.234,4.234,0,0,0-1.84-.657c-.828,0-2.631.469-2.631,3.939v7.354h-4.076V779.97m-10.78-.524c2.76-.092,7.757,1.575,7.757,7.484s-4.9,7.486-7.627,7.486-7.888-.863-7.888-7.617,6.629-7.317,7.757-7.353m0,3.151c.694-.039,3.682.169,3.682,4.2s-2.837,4.6-3.682,4.6-3.551-.638-3.551-4.465,2.856-4.3,3.551-4.333m-16.172-2.758h-2.236v3.021h2.1v11.162H187.6V782.86h2.892v-3.021H187.6V778.4s-.057-2.007,3.286-1.05l.657-2.758a12.358,12.358,0,0,0-4.469-.394,4.473,4.473,0,0,0-2.5,1.05c-.318.375-1.371,1.463-1.051,4.6m-8.416,4.2,3.945-.394s-.545-4.22-6.574-4.2c-5.485.016-6.442,2.664-6.442,4.465a3.845,3.845,0,0,0,3.156,3.939c2.2.639,4.494,1.114,5.259,1.314.938.243,1.053.9,1.053,1.05,0,.355-.151,1.426-2.762,1.444s-3.137-1.465-3.156-2.234l-4.076.657s.751,4.465,7.231,4.465,6.837-4.314,6.837-4.989a4.151,4.151,0,0,0-1.446-2.888,13.646,13.646,0,0,0-5-1.707c-2.4-.451-3.323-.957-3.286-1.577s.714-1.177,2.366-1.181c1.936-.006,2.8.918,2.892,1.838m-26.165-4.2h3.945v1.971a5.84,5.84,0,0,1,4.732-2.234c3.251-.018,5.261,1.314,5.261,5.253v9.193h-4.208v-8.4s.6-2.921-2.236-3.021c-3.192-.112-3.268,2.776-3.286,4.2-.018,1.408,0,7.223,0,7.223h-4.208V779.839m-7.888,7.747v1.577s-.112,2.456-3.286,2.495a1.882,1.882,0,0,1-1.972-1.707c.206-.993.488-1.369,2.1-1.707s2.478-.506,3.156-.657m-8.94-3.808s.965-3.588,4.206-4.069a12.243,12.243,0,0,1,6.048.261c1.754.439,2.631,2.077,2.631,3.941s.02,7.064.131,7.747a5.816,5.816,0,0,0,.789,2.364h-4.076a6.2,6.2,0,0,1-.4-1.446,8.368,8.368,0,0,1-3.68,1.84,6.7,6.7,0,0,1-4.6-1.05,3.727,3.727,0,0,1-1.448-3.152,4.783,4.783,0,0,1,1.053-2.627c.5-.592,1.293-1.181,4.076-1.707a36.141,36.141,0,0,0,4.076-.918s.836-2.16-1.84-2.364c-.983-.076-2.666-.357-3.156,1.838l-3.812-.657m-20.38-9.191h4.339V782.2h8.151v-7.747h4.208v19.566h-4.339v-8.537h-8.02v8.537h-4.206l-.133-19.435" transform="translate(-20417.002 -14329.587)" fill="#2f3d87" fill-rule="evenodd"/>
    <path id="Path_57583" data-name="Path 57583" d="M47.129,766.791h3.963s14.144-17.483,40.778-14.044c23.431,3.027,34.344,21.153,37.583,28.853l13.805-.126s-11.313-26.811-40.906-32.3c-8.961-2.4-38.444-3.392-55.224,17.618" transform="translate(-20405.566 -14342)" fill="#007dc0" fill-rule="evenodd"/>
    <path id="Path_57584" data-name="Path 57584" d="M47.713,804.311l17.091.131S77.559,818.1,97.017,817.968s36.355-9.718,46.018-28.888h3.551s-3.8,6.776-6.574,10.5c-3.025,4.071-10.058,12.739-26.034,19.172S84.4,824.271,70.2,819.806a57.012,57.012,0,0,1-22.22-15.231c-1.622-1.62-.263-.263-.263-.263" transform="translate(-20405.514 -14299.225)" fill="#007dc0" fill-rule="evenodd"/>
    <path id="Path_57585" data-name="Path 57585" d="M207.452,786.855s-2.733.1-2.892,1.181a.963.963,0,0,0,1.05,1.183,1.929,1.929,0,0,0,1.842-2.364m96.638-4.333h2.236l-.133,1.051a4.084,4.084,0,0,1,3.025-1.183,2.047,2.047,0,0,1,2.1,2.1c0,.263-1.316,6.173-1.316,6.173h-2.234l1.051-5.253s.326-1.236-.657-1.314a2.514,2.514,0,0,0-2.5,2.1c-.306,1.444-.92,4.465-.92,4.465h-2.5l1.842-8.141m-4.076,0h2.366l-1.709,8.141H298.3l1.709-8.141m.787-3.021h2.368l-.526,1.97h-2.368l.526-1.97m-6.835,3.151H296.2l-.263,1.577a3.629,3.629,0,0,1,2.631-1.707,1.66,1.66,0,0,1,.92.261l-.92,1.84s-.641-.4-1.709.261c-1.185.736-1.467,2.289-2.105,5.909h-2.5l1.709-8.141m-5.654-.263a3.494,3.494,0,0,1,3.812,3.545c0,1.864-1.446,4.859-4.6,4.859s-4.208-1.758-4.208-3.676,1.052-4.728,5-4.728m-.133,1.707a1.626,1.626,0,0,1,1.709,1.838c0,1.1-.551,3.151-2.5,3.151-1.079,0-1.579-.63-1.579-1.707s.473-3.282,2.366-3.282m-7.888-1.575.263-1.183,2.629-1.575-.526,2.758h1.316l-.263,1.707h-1.446l-.92,3.939s-.21,1.024.657,1.05.789-.133.789-.133l-.263,1.577s.077.1-1.053.131-2.707-.3-2.5-1.838.922-4.726.922-4.726h-1.183l.394-1.707h1.183m-4.471,0h2.368l-1.709,8.141h-2.366l1.707-8.141m.789-3.021h2.366l-.524,1.97h-2.368l.526-1.97m-10.124,2.888h2.236l-.133,1.05a4.093,4.093,0,0,1,3.025-1.181,2.046,2.046,0,0,1,2.1,2.1c0,.263-1.314,6.172-1.314,6.172h-2.236l1.053-5.255s.324-1.234-.659-1.312a2.512,2.512,0,0,0-2.5,2.1c-.308,1.444-.922,4.465-.922,4.465h-2.5l1.84-8.143m-5.785,0a3.493,3.493,0,0,1,3.812,3.545c0,1.864-1.446,4.859-4.6,4.859s-4.206-1.758-4.206-3.676,1.05-4.728,5-4.728m-.133,1.707a1.626,1.626,0,0,1,1.709,1.838c0,1.1-.551,3.151-2.5,3.151-1.079,0-1.579-.63-1.579-1.707s.473-3.282,2.366-3.282m-29.581-1.575h2.234l-.131,1.051a4.082,4.082,0,0,1,3.023-1.183,2.047,2.047,0,0,1,2.105,2.1c0,.263-1.316,6.173-1.316,6.173h-2.236l1.052-5.253s.326-1.236-.657-1.314a2.512,2.512,0,0,0-2.5,2.1c-.306,1.444-.92,4.465-.92,4.465h-2.5l1.842-8.141m-13.542,0h2.366l-1.709,8.141h-2.366l1.709-8.141m.787-3.021H220.6l-.526,1.97h-2.368l.526-1.97m-33.4,3.021H187.2l-1.707,8.141h-2.368l1.709-8.141m.789-3.021h2.366l-.526,1.97H185.1l.526-1.97m-24.455,3.021h2.236l-.133,1.051a4.084,4.084,0,0,1,3.025-1.183,2.046,2.046,0,0,1,2.1,2.1c0,.263-1.314,6.173-1.314,6.173h-2.236l1.051-5.253s.326-1.236-.657-1.314a2.515,2.515,0,0,0-2.5,2.1c-.306,1.444-.92,4.465-.92,4.465h-2.5l1.84-8.141m-15.908,4.726h5.915s.526-2.495-.657-3.676a3.7,3.7,0,0,0-2.762-1.183,4.486,4.486,0,0,0-4.6,4.728c0,3.655,3.464,3.676,3.945,3.676a4.391,4.391,0,0,0,3.682-2.232l-1.972-.526a1.962,1.962,0,0,1-1.709,1.051c-1.161-.043-1.469-.2-1.84-1.838m.263-1.314h3.417s.351-1.838-1.446-1.838-1.817,1.6-1.97,1.838m-5-.524,2.366-.263a3.08,3.08,0,0,0-3.417-2.758c-3.266,0-4.865,2.211-4.865,4.989a3.319,3.319,0,0,0,3.419,3.415c1.028,0,3.68-.722,4.206-2.758L140,787.775s-.634,1.312-1.709,1.312a1.3,1.3,0,0,1-1.446-1.444c0-.787.351-3.545,2.368-3.545.679.022,1.183.218,1.314,1.314m-21.563,1.838h5.917s.526-2.495-.657-3.676a3.707,3.707,0,0,0-2.762-1.183,4.486,4.486,0,0,0-4.6,4.728c0,3.655,3.462,3.676,3.945,3.676a4.388,4.388,0,0,0,3.68-2.232l-1.97-.526a1.962,1.962,0,0,1-1.709,1.051c-1.163-.043-1.469-.2-1.842-1.838m.263-1.314h3.419S123,784.1,121.2,784.1s-1.82,1.6-1.972,1.838m-4.469-6.434h2.366l-2.366,11.162h-2.5l2.5-11.162m203.923,3.021h2.236l-1.84,8.8a3.809,3.809,0,0,1-3.945,2.625c-3.2-.108-4.163-1.026-3.945-3.019l2.631.261a.986.986,0,0,0,1.183,1.05c1.226-.153,1.534.022,2.1-2.362a5.578,5.578,0,0,1-2.236.787,2.871,2.871,0,0,1-3.156-3.151c0-2.888,1.338-5.122,4.208-5.122a3.01,3.01,0,0,1,2.5,1.577l.261-1.444m-2.5,1.575a1.736,1.736,0,0,1,1.709,1.838c0,.481-.286,3.021-2.368,3.021-.832,0-1.446-.592-1.446-1.707s.789-3.151,2.105-3.151m-73.629,6.566,2.5-11.162H248.6l.263,7.353,3.549-7.353h3.812l-2.1,11.162H251.5l1.577-7.747-3.68,7.747h-2.368l-.394-8.93-1.84,8.93h-2.236m-17.618-8.273a3.494,3.494,0,0,1,3.812,3.545c0,1.864-1.446,4.859-4.6,4.859s-4.208-1.758-4.208-3.676,1.053-4.728,5-4.728m-.133,1.707a1.627,1.627,0,0,1,1.709,1.838c0,1.1-.553,3.151-2.5,3.151-1.077,0-1.577-.63-1.577-1.707s.473-3.282,2.366-3.282m-11.963-1.575.261-1.183,2.631-1.575-.526,2.758h1.314l-.263,1.707h-1.446l-.92,3.939s-.21,1.024.659,1.05.787-.133.787-.133l-.263,1.577s.08.1-1.051.131-2.707-.3-2.5-1.838.92-4.726.92-4.726h-1.183l.394-1.707h1.185m-9.862,2.232s.632-2.364,3.814-2.364,3.417,1.813,3.417,2.234-.92,3.886-.92,4.726a2.184,2.184,0,0,0,.263,1.314h-2.366s-.237-.447-.133-.657a3.453,3.453,0,0,1-2.366.787,2.327,2.327,0,0,1-2.629-2.362,2.521,2.521,0,0,1,2.762-2.5,8.87,8.87,0,0,0,2.892-.394c.263-.1.1-.027.131-.657s-.526-.787-.92-.787-1.236.157-1.316.92l-2.629-.263m-5-2.232h2.236l-.263,1.575a3.623,3.623,0,0,1,2.629-1.707,1.669,1.669,0,0,1,.92.263l-.92,1.838s-.64-.4-1.709.263c-1.183.734-1.467,2.287-2.1,5.909h-2.5l1.709-8.141m-5.522,1.575a1.634,1.634,0,0,1,1.577,1.838c0,.549-.416,3.151-2.236,3.151a1.536,1.536,0,0,1-1.577-1.838c.022,0,.088-3.151,2.236-3.151m-3.025-4.6H191.8l-.787,3.808a3.763,3.763,0,0,1,2.236-.92,2.988,2.988,0,0,1,3.154,3.284c0,2.67-1.928,5.12-4.206,5.12a2.67,2.67,0,0,1-2.629-1.444l-.4,1.314h-2.234l2.5-11.162m-15.515,0h2.5l1.446,8.534L182.6,779.5h2.631l-6.444,11.162h-2.76L173.923,779.5m-16.7,3.021h2.368l-1.709,8.141h-2.368l1.709-8.141m.789-3.021h2.366l-.526,1.97h-2.366l.526-1.97m-31.16,3.021h2.234l-.131,1.051a4.084,4.084,0,0,1,3.025-1.183,2.047,2.047,0,0,1,2.1,2.1c0,.263-1.316,6.173-1.316,6.173h-2.234l1.05-5.253s.326-1.236-.657-1.314a2.514,2.514,0,0,0-2.5,2.1c-.306,1.444-.92,4.465-.92,4.465h-2.5l1.842-8.141M110.814,779.5h2.366l-2.366,11.162h-2.5l2.5-11.162m-8.284,7.747h5.917s.526-2.495-.659-3.676a3.7,3.7,0,0,0-2.76-1.183,4.485,4.485,0,0,0-4.6,4.728c0,3.655,3.462,3.676,3.945,3.676a4.388,4.388,0,0,0,3.68-2.232l-1.972-.526a1.957,1.957,0,0,1-1.707,1.051c-1.163-.043-1.469-.2-1.842-1.838m.263-1.314h3.419s.351-1.838-1.446-1.838-1.819,1.6-1.972,1.838m-4.865-.524,2.366-.263a3.08,3.08,0,0,0-3.417-2.758c-3.266,0-4.865,2.211-4.865,4.989a3.319,3.319,0,0,0,3.417,3.415c1.03,0,3.682-.722,4.208-2.758l-2.236-.261s-.634,1.312-1.709,1.312a1.3,1.3,0,0,1-1.446-1.444c0-.787.351-3.545,2.368-3.545.679.022,1.183.218,1.314,1.314M83.86,782.523h2.629l1.185,2.232,1.84-2.232H92.67l-3.945,4.2,2.105,3.939H88.068l-1.053-2.1-1.972,2.1h-2.76l3.682-4.071-2.105-4.07M75.446,779.5h8.81l-.526,1.838-6.181.133-.657,2.495h6.181l-.526,1.838H76.5l-.789,3.021h6.837l-.263,1.838-9.336-.131,2.5-11.031" transform="translate(-20378.721 -14309.185)" fill="#007dc0" fill-rule="evenodd"/>
  </g>
</svg>
